<svg aria-hidden="true" style="position: absolute; width: 0; height: 0; overflow: hidden;" version="1.1"
   xmlns="http://www.w3.org/2000/svg" xmlns:xlink="http://www.w3.org/1999/xlink">
   <defs>
      <symbol id="icon-img-1" viewBox="0 0 63 32">
         <path fill="#c9ccce" style="fill: var(--color1, #c9ccce)"
            d="M50.361 0.838c0-0.499 0.388-0.838 0.893-0.838s0.893 0.339 0.893 0.838-0.398 0.838-0.893 0.838c-0.495 0-0.893-0.339-0.893-0.838zM50.632 0.838c0 0.339 0.262 0.593 0.621 0.593s0.621-0.254 0.621-0.593c0-0.339-0.262-0.603-0.621-0.603s-0.621 0.264-0.621 0.603zM14.93 16.659h4.358l6.426-16.612h-4.048l-2.883 7.449 0.495-7.449h-4.3l-6.426 16.612h4.048l2.825-7.345-0.495 7.345zM9.688 20.426c0-0.499 0.388-0.838 0.893-0.838s0.893 0.339 0.893 0.838-0.398 0.838-0.893 0.838c-0.495 0-0.893-0.339-0.893-0.838zM9.96 20.426c0 0.339 0.262 0.593 0.621 0.593s0.621-0.254 0.621-0.593-0.262-0.603-0.621-0.603c-0.359 0-0.621 0.264-0.621 0.603zM19.812 16.659l6.426-16.612h4.048l-6.426 16.612h-4.048zM1.815 29.891c-4.718-3.946 0.621-12.516 6.271-18.957-4.873 9.464 1.864 12.968 7.785 11.357 0 0 10.462-2.753 21.495-5.654l-5.837 0.013-0.184-6.941-2.718 6.941h-4.048l6.368-16.603h4.096l-1.961 4.982 4.242-4.982h12.348l-1.087 2.769h-4.096l-1.33 3.494h3.892l-1.194 3.098h-3.893l-1.553 4.021h4.718l-0.479 1.292c9.613-2.528 17.949-4.719 18.039-4.739 0.524-0.122 0.602 0.132 0.184 0.33 0 0-43.003 18.119-46.895 19.626l-0.076 0.030c-3.89 1.516-9.554 3.722-14.087-0.077zM10.737 20.483c0.126-0.009 0.223-0.066 0.223-0.235 0-0.217-0.146-0.273-0.389-0.273h-0.35v0.904h0.233v-0.386h0.039l0.214 0.386h0.272l-0.243-0.395zM10.581 20.342h-0.136v-0.207h0.117c0.068 0 0.146 0.009 0.146 0.094 0 0.094-0.039 0.113-0.126 0.113zM51.409 0.895c0.126-0.009 0.223-0.066 0.223-0.235 0-0.217-0.146-0.273-0.389-0.273h-0.35v0.904h0.233v-0.386h0.039l0.214 0.386h0.272l-0.243-0.396zM51.254 0.753h-0.136v-0.207h0.117c0.068 0 0.146 0.009 0.146 0.094 0 0.094-0.039 0.113-0.126 0.113zM35.285 6.894l0.262 8.655 5.853-15.171-6.115 6.517z">
         </path>
      </symbol>
      <symbol id="icon-img-2" viewBox="0 0 31 32">
         <path fill="#c9ccce" style="fill: var(--color1, #c9ccce)" d="M0 2v28h0.174l11.087-28h-11.261z"></path>
         <path fill="#c9ccce" style="fill: var(--color1, #c9ccce)" d="M31.319 2h-11.431l11.431 28v-28z"></path>
         <path fill="#c9ccce" style="fill: var(--color1, #c9ccce)"
            d="M18.533 30h4.737l-7.626-18.074-5.038 12.616h5.63l2.298 5.458z"></path>
      </symbol>
      <symbol id="icon-img-3" viewBox="0 0 31 32">
         <path fill="#c9ccce" style="fill: var(--color1, #c9ccce)"
            d="M14.883 0h-14.883v15.206h14.883v-15.206zM31.319 0h-14.883v15.206h14.883v-15.206zM0 16.794h14.883v15.206h-14.883v-15.206zM31.319 16.794h-14.883v15.206h14.883v-15.206z">
         </path>
      </symbol>
      <symbol id="icon-img-4" viewBox="0 0 170 32">
         <path fill="#c9ccce" style="fill: var(--color1, #c9ccce)"
            d="M47.451 1.587c-0.442 0.88-0.442 1.73-0.442 2.61v10.998c0 0 5.92-7.655 7.275-9.473 1.031-1.349 2.297-3.255 2.297-4.135h19.322c-1.325 0.88-2.798 2.464-4.006 3.93-1.060 1.29-7.069 8.593-7.069 8.593s8.925 13.52 10.073 15.251c0.648 0.938 1.355 1.818 2.18 2.61h-22.238c0-0.88-0.854-2.669-1.797-4.077s-6.038-9.121-6.038-9.121v10.587c0 0.88 0 1.73 0.442 2.61h-18.527c0.442-0.88 0.442-1.73 0.442-2.61v-25.163c0-0.88 0-1.73-0.442-2.61h18.527zM116.050 1.587h-35.757c0.442 0.88 0.442 1.73 0.442 2.61v25.163c0 0.88 0 1.73-0.442 2.61h35.757v-8.417c-0.884 0.44-1.738 0.44-2.621 0.44h-15.051v-3.989h14.462v-6.423h-14.462v-4.018h15.051c0.884 0 1.738 0 2.621 0.411v-8.388zM165.591 29.361c0.295 0.968 0.795 1.848 1.443 2.61h-19.381c0.088-0.88-0.236-1.73-0.589-2.61 0 0-0.295-0.704-0.707-1.73l-0.177-0.44h-11.163l-0.177 0.469c0 0-0.324 0.851-0.619 1.73s-0.618 1.73-0.501 2.61h-15.287c0.619-0.763 1.090-1.642 1.384-2.61l9.16-25.163c0.324-0.88 0.648-1.73 0.53-2.61h25.831c-0.236 0.88 0.236 1.73 0.56 2.61 0.766 1.906 9.042 23.433 9.69 25.134zM143.736 20.767l-2.71-7.039c-0.236-0.645-0.442-1.32-0.589-1.994-0.118 0.675-0.295 1.349-0.53 1.994-0.088 0.293-1.237 3.373-2.563 7.039h6.392zM19.705 4.197c0-0.88 0-1.73 0.442-2.61h-20.147c0.442 0.88 0.442 1.73 0.442 2.61v25.163c0 0.88 0 1.73-0.442 2.61h20.147c-0.442-0.88-0.442-1.73-0.442-2.61v-25.163zM159.406 3.992c-0.059 2.2 1.679 4.047 3.917 4.106 2.209 0.059 4.065-1.672 4.123-3.901 0-0.059 0-0.147 0-0.205 0.029-2.17-1.679-3.959-3.858-3.989-0.059 0-0.088 0-0.147 0-2.15-0.088-3.947 1.584-4.006 3.725-0.059 0.088-0.059 0.176-0.029 0.264zM166.622 3.992c0.059 1.76-1.355 3.255-3.122 3.285-1.767 0.059-3.269-1.349-3.299-3.109 0-0.059 0-0.117 0-0.205-0.059-1.701 1.267-3.138 2.975-3.197 0.088 0 0.147 0 0.236 0 1.738-0.029 3.181 1.349 3.211 3.079 0 0.059 0 0.117 0 0.147zM165.385 6.397h-0.795l-0.943-1.701h-1.031v1.701h-0.707v-4.81h1.797c0.854 0.029 1.502 0.704 1.502 1.554 0 0.587-0.324 1.114-0.854 1.408l1.031 1.848zM163.589 3.992c0.471 0.029 0.884-0.323 0.884-0.792s-0.324-0.88-0.795-0.88c-0.029 0-0.059 0-0.088 0h-0.972v1.701h0.972z">
         </path>
      </symbol>
      <symbol id="icon-img-5" viewBox="0 0 25 32">
         <path fill="#c9ccce" style="fill: var(--color1, #c9ccce)" d="M0 14.545h6.531v6.788h-6.531v-6.788z"></path>
         <path fill="#c9ccce" style="fill: var(--color1, #c9ccce)"
            d="M14.976 25.159c0 2.063 0.293 3.402 0.874 4.019 0.495 0.526 1.335 0.848 2.514 0.972 0.35 0.031 0.946 0.045 1.789 0.045v1.806h-15.118v-1.806c1.213 0 2.112-0.062 2.689-0.181 1.172-0.257 1.911-0.963 2.215-2.123 0.155-0.602 0.238-1.512 0.238-2.731v-23.624c-2.567 0.076-4.573 0.957-6.022 2.642-1.376 1.611-2.214 4.082-2.517 7.409l-1.638-0.29 0.305-11.297h24.581l0.305 11.297-1.635 0.29c-0.305-3.327-1.149-5.798-2.531-7.409-1.457-1.686-3.471-2.566-6.048-2.642v23.623h-0.001z">
         </path>
         <path fill="#c9ccce" style="fill: var(--color1, #c9ccce)" d="M18.66 14.545h6.531v6.788h-6.531v-6.788z"></path>
      </symbol>
      <symbol id="icon-img-6" viewBox="0 0 152 32">
         <path fill="#c9ccce" style="fill: var(--color1, #c9ccce)"
            d="M39.305 15.816c0-1.885-1.485-3.442-3.423-3.442-1.897 0-3.423 1.557-3.423 3.442s1.485 3.401 3.423 3.401c1.938 0 3.423-1.516 3.423-3.401zM45.244 15.857c0 4.876-4.166 8.768-9.321 8.768-5.197 0-9.321-3.892-9.321-8.768 0-4.917 4.166-8.85 9.321-8.85 5.155-0.041 9.321 3.933 9.321 8.85zM63.845 12.292c0-3.278-2.31-6.146-5.733-6.146h-4.743v12.415h4.743c3.423 0 5.733-2.991 5.733-6.269zM70.238 12.292c0 7.006-4.99 11.8-12.002 11.8h-10.146c-0.495 0-0.866-0.369-0.866-0.819v-21.88c0-0.451 0.371-0.819 0.866-0.819h10.146c7.053 0.041 12.002 4.712 12.002 11.718zM80.177 19.216c1.897 0 3.423-1.557 3.423-3.442s-1.485-3.442-3.423-3.442c-1.897 0-3.423 1.557-3.423 3.442 0 1.926 1.526 3.442 3.423 3.442zM79.27 6.965c2.021 0 3.629 0.738 4.33 1.762v-0.492c0-0.451 0.371-0.778 0.784-0.778h4.289c0.454 0 0.784 0.328 0.784 0.778v15.078c0 0.451-0.33 0.779-0.784 0.779h-4.248c-0.454 0-0.784-0.328-0.784-0.779v-0.492c-0.701 1.024-2.351 1.762-4.372 1.762-4.289 0-8.414-3.401-8.414-8.85s4.124-8.768 8.414-8.768zM99.562 19.216c1.897 0 3.423-1.557 3.423-3.442s-1.485-3.442-3.423-3.442c-1.897 0-3.423 1.557-3.423 3.442 0 1.926 1.526 3.442 3.423 3.442zM98.531 6.965c2.062 0 3.671 0.779 4.413 1.68v-7.252c0-0.451 0.371-0.778 0.784-0.778h4.331c0.454 0 0.784 0.328 0.784 0.778v21.962c0 0.451-0.33 0.778-0.784 0.778h-4.248c-0.454 0-0.784-0.328-0.784-0.778v-0.492c-0.866 1.024-2.351 1.762-4.372 1.762-4.289 0-8.414-3.401-8.414-8.85s4.083-8.809 8.29-8.809zM118.946 19.216c1.897 0 3.423-1.557 3.423-3.442s-1.485-3.442-3.423-3.442c-1.897 0-3.423 1.557-3.423 3.442 0.041 1.926 1.526 3.442 3.423 3.442zM117.956 6.965c2.062 0 3.671 0.779 4.413 1.68v-7.252c0-0.451 0.371-0.778 0.784-0.778h4.289c0.454 0 0.784 0.328 0.784 0.778v21.962c0 0.451-0.33 0.778-0.784 0.778h-4.248c-0.454 0-0.784-0.328-0.784-0.778v-0.492c-0.866 1.024-2.351 1.762-4.372 1.762-4.289 0-8.414-3.401-8.414-8.85s4.083-8.809 8.331-8.809zM142.496 26.51c-1.073 3.524-3.547 5.49-7.424 5.49-2.103 0-4.166-0.697-5.485-1.844-0.206-0.205-0.33-0.451-0.33-0.697 0-0.205 0.082-0.451 0.289-0.697l1.608-2.417c0.247-0.328 0.619-0.369 0.701-0.369 0.371 0 0.536 0.082 0.866 0.328 0.495 0.328 1.196 0.738 1.98 0.738 0.66 0 1.526-0.287 1.856-1.27l0.536-1.68h-2.64c-0.536 0-0.866-0.369-1.031-0.819l-4.331-14.464c-0.083-0.369-0.124-0.574-0.124-0.697 0-0.328 0.247-0.615 0.701-0.615h5.114c0.454 0 0.701 0.41 0.825 0.819l2.846 10.407h0.206l2.269-10.407c0.082-0.41 0.37-0.819 0.825-0.819h5.197c0.494 0 0.701 0.287 0.701 0.615 0 0.123-0.042 0.328-0.124 0.697l-5.032 17.7zM20.498 20.855c-2.062 2.827-5.444 3.769-8.455 3.769-6.929 0-12.043-5.122-12.043-12.251 0.041-6.843 5.568-12.292 12.785-12.292 5.362 0 9.651 2.254 11.589 6.556 0.247 0.492 0.413 1.311-1.031 1.557l-3.794 0.656c-0.866 0.164-1.361-0.41-1.526-0.656-1.114-1.516-2.928-2.54-5.114-2.54-3.794 0-6.475 2.868-6.475 6.679 0 4.22 3.052 6.679 6.393 6.679 2.227 0 4.042-0.819 5.238-2.376h-3.341c-0.495 0-0.866-0.369-0.866-0.819v-3.155c0-0.451 0.371-0.819 0.866-0.819h10.187c0.495 0 0.866 0.369 0.866 0.819v10.612c0 0.451-0.371 0.819-0.866 0.819h-3.547c-0.495 0-0.866-0.369-0.866-0.819v-2.417zM148.394 0c-1.814 0-3.299 1.475-3.299 3.278s1.485 3.278 3.299 3.278c1.814 0 3.3-1.475 3.3-3.278s-1.486-3.278-3.3-3.278zM148.394 5.9c-1.443 0-2.639-1.188-2.639-2.622s1.197-2.622 2.639-2.622c1.444 0 2.639 1.188 2.639 2.622s-1.195 2.622-2.639 2.622z">
         </path>
         <path fill="#c9ccce" style="fill: var(--color1, #c9ccce)"
            d="M149.055 2.663c0-0.164-0.042-0.287-0.166-0.328-0.082-0.082-0.248-0.164-0.371-0.164h-0.577v0.942h0.577c0.166 0 0.289-0.041 0.371-0.164 0.082-0.082 0.166-0.164 0.166-0.287zM147.776 5.081h-0.619c-0.042 0-0.042 0-0.082-0.041 0-0.041-0.042-0.041-0.042-0.082v-3.401c0-0.041 0-0.041 0.042-0.082 0.040 0 0.040-0.041 0.082-0.041h1.361c0.454 0 0.783 0.082 1.031 0.328s0.371 0.533 0.371 0.86c0 0.246-0.042 0.451-0.206 0.615-0.166 0.205-0.289 0.328-0.495 0.451l0.783 1.188c0.042 0.041 0.042 0.082 0 0.164 0 0.041-0.040 0.041-0.082 0.041h-0.619c-0.040 0-0.082 0-0.164-0.041-0.042 0-0.042-0.041-0.082-0.082l-0.661-1.106h-0.495v1.065c0 0.041 0 0.041-0.040 0.082-0.042 0.041-0.042 0.082-0.082 0.082z">
         </path>
      </symbol>
      <symbol id="icon-img-7" viewBox="0 0 39 32">
         <path fill="#c9ccce" style="fill: var(--color1, #c9ccce)"
            d="M38.792 19.775c-0.030-0.48-0.096-0.963-0.206-1.432-0.302-1.3-0.823-2.511-1.501-3.659-0.747-1.264-1.623-2.43-2.635-3.491-0.526-0.552-1.076-1.084-1.619-1.621-0.158-0.155-0.325-0.304-0.498-0.44-0.746-0.588-1.468-1.207-2.254-1.734-1.344-0.905-2.691-1.817-4.105-2.603-1.333-0.741-2.729-1.381-4.143-1.955-1.427-0.58-2.899-1.058-4.371-1.515-0.951-0.295-1.934-0.495-2.91-0.697-0.785-0.163-1.576-0.291-2.371-0.389-0.874-0.109-1.755-0.202-2.637-0.227-0.961-0.028-1.923 0.011-2.884 0.053-0.264 0.011-0.529 0.025-0.793 0.047-0.323 0.028-0.644 0.068-0.959 0.13-0.978 0.193-1.95 0.425-2.91 0.691-0.296 0.083-1.212 0.374-1.667 1.209-0.098 0.18-0.245 0.506-0.311 0.888-0.119 0.693 0.353 1.36 1.049 1.451 0.006 0 0.010 0 0.013 0.002 0.574 0.068 1.155 0.095 1.735 0.112 0.198 0.006 0.417-0.030 0.593-0.119 0.147-0.074 0.291-0.234 0.342-0.389 0.024-0.075-0.143-0.266-0.262-0.327-0.332-0.163-0.704-0.246-1.049-0.378-0.106-0.040-0.215-0.060-0.327-0.085-0.049-0.011-0.083-0.053-0.087-0.104v-0.006c0-0.040 0.021-0.078 0.057-0.098 0.096-0.055 0.191-0.11 0.293-0.127 0.785-0.13 1.569-0.306 2.357-0.393 0.194-0.023 0.389-0.040 0.583-0.049 1.453-0.068 2.914-0.078 4.364 0.147 0.827 0.129 1.668 0.174 2.48 0.359 1.504 0.344 3.007 0.71 4.485 1.156 1.157 0.35 2.291 0.778 3.392 1.279 1.559 0.71 3.112 1.447 4.596 2.301 1.297 0.746 2.522 1.629 3.732 2.516 0.87 0.639 1.687 1.357 2.482 2.091 0.534 0.493 0.989 1.075 1.47 1.625 0.876 1.001 1.563 2.122 2.057 3.355 0.521 1.298 0.727 2.641 0.442 4.022-0.304 1.47-1.087 2.66-2.255 3.586-0.915 0.724-1.94 1.275-3.052 1.623-0.959 0.3-1.94 0.54-2.926 0.742-0.798 0.164-1.614 0.302-2.425 0.329-1.002 0.034-2.014-0.013-3.012-0.108-0.997-0.095-1.98-0.302-2.973-0.431-0.243-0.032-0.268-0.129-0.264-0.323 0.024-1.275 0.041-2.55 0.058-3.824 0.021-1.483 0.038-2.966 0.058-4.449 0.002-0.053 0.019-0.106 0.030-0.176 0.508 0.041 1 0.081 1.495 0.125 0.668 0.055 1.344 0.076 2.008 0.18 1.013 0.157 2.025 0.344 3.027 0.569 0.746 0.168 1.491 0.376 2.125 0.843 0.485 0.357 0.41 0.691 0.009 1.014-0.149 0.119-0.33 0.198-0.502 0.287-0.296 0.151-0.606 0.279-0.891 0.45-0.347 0.206-0.355 0.44-0.006 0.618 0.965 0.491 1.927 0.784 2.982 0.166 1.74-1.018 2.182-3.178 0.712-4.689-0.763-0.782-1.693-1.287-2.708-1.659-1.083-0.399-2.214-0.58-3.339-0.803-1.453-0.285-2.914-0.444-4.394-0.442-0.081 0-0.164-0.010-0.24-0.013-0.028-0.459-0.058-0.899-0.083-1.338-0.023-0.442-0.019-0.884-0.062-1.324-0.058-0.62-0.136-1.239-0.227-1.855-0.109-0.741-0.566-1.304-1.019-1.853-0.327-0.395-0.764-0.419-1.021 0.151-0.064 0.144-0.134 0.287-0.168 0.438-0.196 0.837-0.413 1.672-0.561 2.517-0.138 0.797-0.198 1.608-0.293 2.413-0.038 0.323-0.066 0.648-0.119 0.969-0.011 0.066-0.098 0.16-0.162 0.174-0.627 0.123-1.259 0.221-1.886 0.346-1.795 0.363-3.527 0.914-5.151 1.768-0.659 0.346-1.293 0.739-1.744 1.364-0.538 0.742-0.661 1.53-0.247 2.358 0.459 0.916 1.136 1.68 1.819 2.43 0.425 0.465 0.88 0.899 1.359 1.307 0.71 0.603 1.419 1.219 2.191 1.734 0.993 0.661 2.048 1.23 3.069 1.846 0.085 0.051 0.168 0.172 0.183 0.27 0.091 0.559 0.138 1.126 0.242 1.681 0.091 0.48 0.279 0.933 0.661 1.258 0.523 0.444 1.134 0.431 1.735 0.215 0.364-0.13 0.776-0.261 0.866-0.731 0.057-0.293 0.125-0.588 0.126-0.88 0.002-0.276 0.087-0.316 0.328-0.245 1.493 0.435 3.026 0.663 4.569 0.784 0.802 0.064 1.612 0.011 2.418 0.013 1.191 0.004 2.359-0.164 3.524-0.395 1.485-0.295 2.916-0.756 4.281-1.407 0.959-0.459 1.842-1.033 2.652-1.732 0.795-0.686 1.467-1.468 1.963-2.384 0.857-1.587 1.329-3.28 1.216-5.101zM14.565 20.508c-0.006 0.085-0.002 0.17-0.006 0.255-0.038 0.826-0.066 1.651-0.117 2.477-0.041 0.68-0.108 1.36-0.168 2.040-0.019 0.221-0.053 0.444-0.081 0.684-1.604-0.633-3.112-1.394-4.502-2.382-1.091-0.773-2.084-1.653-2.937-2.683-0.417-0.501-0.281-0.967 0.262-1.196 0.729-0.308 1.497-0.533 2.267-0.714 0.791-0.187 1.604-0.293 2.412-0.402 0.498-0.070 1.004-0.085 1.508-0.121 0.481-0.036 0.963-0.070 1.474-0.108-0.037 0.729-0.077 1.439-0.113 2.15z">
         </path>
      </symbol>
      <symbol id="icon-img-9" viewBox="0 0 32 32">
         <path fill="#c9ccce" style="fill: var(--color1, #c9ccce)"
            d="M7.092 19.338l-1.114 4.158-4.071 0.086c-1.217-2.257-1.907-4.839-1.907-7.582 0-2.653 0.645-5.155 1.789-7.358l3.625 0.665 1.588 3.603c-0.332 0.969-0.513 2.009-0.513 3.091 0 1.175 0.213 2.3 0.603 3.338z">
         </path>
         <path fill="#c9ccce" style="fill: var(--color1, #c9ccce)"
            d="M31.72 13.011c0.184 0.968 0.28 1.967 0.28 2.989 0 1.146-0.12 2.263-0.35 3.341-0.779 3.668-2.814 6.87-5.633 9.137l-0.001-0.001-4.565-0.233-0.646-4.033c1.871-1.097 3.333-2.814 4.103-4.869h-8.556v-6.33h15.369z">
         </path>
         <path fill="#c9ccce" style="fill: var(--color1, #c9ccce)"
            d="M26.016 28.477l0.001 0.001c-2.742 2.204-6.225 3.523-10.017 3.523-6.093 0-11.391-3.406-14.093-8.418l5.185-4.244c1.351 3.606 4.83 6.173 8.908 6.173 1.753 0 3.395-0.474 4.805-1.301l5.211 4.266z">
         </path>
         <path fill="#c9ccce" style="fill: var(--color1, #c9ccce)"
            d="M26.213 3.683l-5.183 4.243c-1.458-0.912-3.182-1.438-5.029-1.438-4.171 0-7.714 2.685-8.998 6.42l-5.212-4.267c2.663-5.134 8.026-8.642 14.21-8.642 3.882 0 7.442 1.383 10.213 3.683z">
         </path>
      </symbol>
      <symbol id="icon-img-10" viewBox="0 0 133 32">
         <path fill="#c9ccce" style="fill: var(--color1, #c9ccce)"
            d="M0 0.408h12.699l10.658 18.492c0 0 0-13.391 0-14.434 0-1.623-2.012-3.739-2.721-4.058 0.85 0 8.277 0 8.787 0-0.538 0.145-2.268 2.29-2.268 4.058 0 0.87 0 20.289 0 21.216 0 1.304 1.843 3.101 2.721 3.797h-12.245l-10.828-18.579c0 0 0 13.854 0 14.608 0 1.449 1.389 2.84 2.835 4.029h-9.354c1.332-0.58 2.608-2.406 2.721-3.855s0-20.144 0-20.955c0-1.768-1.672-3.217-3.005-4.319z">
         </path>
         <path fill="#c9ccce" style="fill: var(--color1, #c9ccce)"
            d="M116.159 29.478h16.894c-0.935-0.232-1.984-1.362-2.551-2.869s-9.524-26.201-9.524-26.201h-5.874c-2.413 0.525-5.718-0.431-7.802 1.059-0.006 0.054 1.383 3.294 1.374 3.347-0.28 1.739-5.306 20.354-5.612 21.274-0.425 1.275-2.608 2.696-3.486 3.449h9.099c-0.907-1.043-1.644-2.058-1.474-3.217s0.68-3.478 0.68-3.478h9.411c0.425 1.159 0.743 2.201 0.907 3.188 0.198 1.188-0.992 2.522-2.041 3.449zM108.732 19.131l3.175-10.608 4.195 10.608h-7.37zM107.302 1.467c0.467-0.352 7.335-0.705 7.802-1.059h-8.866c0.246 0.232 0.652 0.597 1.064 1.059z">
         </path>
         <path fill="#c9ccce" style="fill: var(--color1, #c9ccce)"
            d="M42.688 26.319c0.17-1.159 0.68-3.478 0.68-3.478h9.411c0.425 1.159 0.743 2.201 0.907 3.188 0.198 1.188-0.992 2.522-2.041 3.449h14.874c0.31-0.213 0.618-0.425 0.926-0.636-0.576-0.522-1.107-1.304-1.457-2.234-0.567-1.507-9.524-26.201-9.524-26.201h-14.739c0.709 0.667 2.749 2.464 2.438 4.406-0.278 1.739-5.306 20.354-5.612 21.274-0.425 1.275-2.608 2.696-3.486 3.449h9.099c-0.907-1.043-1.644-2.058-1.474-3.217zM47.393 8.523l4.195 10.608h-7.37l3.175-10.608z">
         </path>
         <path fill="#c9ccce" style="fill: var(--color1, #c9ccce)"
            d="M94.067 14.838c-2.774 1.89-5.701 3.863-8.785 5.922 1.383 0.686 2.485 1.548 2.591 2.661 0.197 2.091-3.912 3.101-7.625 2.666-0.743-0.087-1.452-0.198-2.147-0.464-1.849-0.709-2.574-1.376-3.238-1.848-2.232 0.861-0.9 4.475-2.012 5.225v3.001c0.737-1.478 2.349-2.802 3.6-2.869 0.538-0.029 2.409 1.739 10.119 1.304 3.741-0.211 10.97-4.29 10.856-8.985-0.068-2.775-1.485-4.939-3.358-6.612zM72.847 22.088l0.002 6.912c0.682-0.466 1.353-4.778 2.012-5.225-1.037-0.738-1.772-1.428-2.014-1.687zM94.067 14.838c-1.647-1.231-4.082-2.734-4.779-3.070-3.628-1.739-7.426-2.058-8.22-4.406-0.559-1.656 1.020-3.188 4.875-3.13s7.427 2.406 8.39 3.246v-7.478c-0.283 0.29-1.527 1.749-2.664 1.507-2.183-0.464-5.896-1.069-10.148-1.043-4.875 0.029-9.070 3.882-9.212 8.753-0.198 6.811 5.13 8.666 8.135 9.739 0.31 0.11 4.454 1.679 4.838 1.805 2.882-1.917 3.873-1.922 5.207-2.709 0.896-0.528 2.202-2.288 3.578-3.214z">
         </path>
      </symbol>
      <symbol id="icon-logo" viewBox="0 0 92 32">
         <path fill="#1b1b1b" style="fill: var(--color2, #1b1b1b)"
            d="M18.873 10.057h-4.754v21.365h4.754v-21.365zM4.898 19.729c0.064-0.418 0.409-1.055 1.441-1.010 1.378-0.045 1.435 0.824 1.441 1.155h4.754c-0.457-4.213-4.072-5.053-6.195-5.053-3.27 0-6.138 2.115-6.195 5.486 0.057 2.133 1.778 3.495 3.89 4.186 0.595 0.231 1.119 0.422 1.576 0.589 1.84 0.671 2.596 0.947 2.602 1.866-0.008 0.736-0.868 1.2-1.729 1.155-0.143 0.045-1.549 0.045-1.729-1.444h-4.754c0.43 4.24 4.074 5.341 6.483 5.341 3.528 0 6.483-2.086 6.483-5.63 0-3.466-2.869-4.277-5.619-5.053-1.209-0.355-2.385-0.847-2.449-1.588zM21.034 10.057h4.754v3.609h-4.754v-3.609zM25.788 15.399h-4.754v16.024h4.754v-16.024zM40.051 31.423h4.61v-21.365h-4.754v6.785c-0.556-0.59-1.913-1.98-4.754-2.021-4.056 0.042-7.924 3.139-7.924 8.517 0 4.898 3.175 8.662 8.068 8.662 3.188 0 4.343-1.592 4.754-2.31v1.732zM31.983 23.338c0 2.408 1.75 4.042 4.034 4.042 1.102 0 2.164-0.459 2.881-1.155 0.775-0.795 1.205-1.827 1.153-3.032-0.005-1.117-0.464-2.092-1.153-2.743-0.746-0.754-1.751-1.155-2.881-1.155-2.743 0-4.034 2.15-4.034 4.042zM50.712 25.071c0.208 1.735 1.814 2.867 3.746 2.887 1.453-0.020 2.256-0.688 2.881-1.588h4.754c-0.704 1.858-1.822 3.251-3.169 4.186-1.321 0.95-2.898 1.444-4.466 1.444-4.628 0-8.5-3.743-8.5-8.517 0-4.512 3.499-8.662 8.356-8.662 2.429 0 4.523 0.958 6.051 2.599 1.972 2.131 2.574 4.714 2.161 7.651h-11.814zM54.314 18.863c2.498 0 3.486 1.831 3.602 2.599h-7.203c0.116-0.768 1.104-2.599 3.602-2.599zM69.441 18.719c1.378-0.045 1.435 0.824 1.441 1.155h4.754c-0.457-4.213-4.072-5.053-6.195-5.053-3.27 0-6.138 2.115-6.195 5.486 0.057 2.133 1.778 3.495 3.89 4.186 0.595 0.231 1.119 0.422 1.576 0.589 1.84 0.671 2.596 0.947 2.602 1.866-0.008 0.736-0.868 1.2-1.729 1.155-0.143 0.045-1.549 0.045-1.729-1.444h-4.754c0.43 4.24 4.073 5.341 6.483 5.341 3.528 0 6.483-2.086 6.483-5.63 0-3.466-2.869-4.278-5.619-5.053-1.209-0.355-2.385-0.847-2.449-1.588 0.064-0.418 0.409-1.055 1.441-1.010z">
         </path>
         <path fill="#f25022" style="fill: var(--color3, #f25022)" opacity="0.9"
            d="M84.114 16.457c4.545 0 8.229-3.684 8.229-8.229s-3.684-8.229-8.229-8.229-8.229 3.684-8.229 8.229c0 4.545 3.684 8.229 8.229 8.229z">
         </path>
         <path fill="#fff" style="fill: var(--color4, #fff)"
            d="M84.098 11.986c-0.419 0-0.796-0.083-1.132-0.25s-0.605-0.395-0.807-0.686c-0.202-0.29-0.313-0.621-0.332-0.993h0.857c0.033 0.331 0.183 0.605 0.45 0.821 0.269 0.214 0.591 0.321 0.964 0.321 0.3 0 0.567-0.070 0.8-0.211 0.236-0.14 0.42-0.333 0.554-0.579 0.136-0.248 0.204-0.527 0.204-0.839 0-0.319-0.070-0.604-0.211-0.854-0.138-0.252-0.329-0.451-0.571-0.596s-0.52-0.219-0.832-0.221c-0.224-0.002-0.454 0.032-0.689 0.104-0.236 0.069-0.43 0.158-0.582 0.268l-0.829-0.1 0.443-3.6h3.8v0.786h-3.057l-0.257 2.157h0.043c0.15-0.119 0.338-0.218 0.564-0.296s0.462-0.118 0.707-0.118c0.448 0 0.846 0.107 1.196 0.321 0.352 0.212 0.629 0.502 0.829 0.871 0.202 0.369 0.304 0.79 0.304 1.264 0 0.467-0.105 0.883-0.314 1.25-0.207 0.364-0.493 0.652-0.857 0.864-0.364 0.21-0.779 0.314-1.243 0.314z">
         </path>
      </symbol>
      <symbol id="icon-blue" viewBox="0 0 40 32">
         <path fill="#2164e1" style="fill: var(--color1, #2164e1)"
            d="M5.699 6.575c0-2.421 1.963-4.384 4.384-4.384h19.726c2.421 0 4.384 1.963 4.384 4.384v11.836c0 2.421-1.963 4.384-4.384 4.384h-19.726c-2.421 0-4.384-1.963-4.384-4.384v-11.836z">
         </path>
      </symbol>
      <symbol id="icon-orange" viewBox="0 0 32 32">
         <path fill="#f25022" style="fill: var(--color2, #f25022)"
            d="M1.841 14.867c0-7.82 6.339-14.159 14.159-14.159s14.159 6.339 14.159 14.159c0 7.82-6.339 14.159-14.159 14.159s-14.159-6.339-14.159-14.159z">
         </path>
      </symbol>
      <symbol id="icon-img-8" viewBox="0 0 31 32">
         <path fill="#c9ccce" style="fill: var(--color1, #c9ccce)"
            d="M25.239 11.146c-0.767 0.211-7.782 5.767-8.244 7.13-0.102 0.471 0.010 5.037 0.112 5.721 0.462 0.105 3.799 0.014 4.412 0.118l-0.073 1.411c-0.6-0.048-4.84-0.036-7.26-0.036-1.23 0-5.182 0.139-6.396 0.103l0.229-1.343c0.666-0.050 3.422 0.125 4.027-0.532 0.3-0.327 0.206-4.666 0.104-5.4-0.255-0.785-6.403-8.652-8.009-9.94h-4.141v-1.978h13.964v0.136c0.012 0 0.036 0.002 0.047 0.005l-0.047 0.334v1.502h-4.211c1.877 2.803 4.568 6.187 5.715 7.813l5.624-5.205h-3.343l-0.471-1.976h12.246l-0.090 0.141c0.009 0 0.030 0.002 0.043 0.002l-0.875 1.296c-0.008 0-0.021 0.002-0.028 0.004l-0.353 0.532h-2.259c-0.292 0.066-0.55 0.125-0.724 0.161zM29.235 23.532l-1.081-0.054-1.206-0.15 0.010 2.112 0.951 0.084 1.025 0.077 0.301-2.068zM31.333 13.437c-0.365-0.013-3.682-0.334-4.113-0.421l0.051 8.922 1.877 0.155 2.185-8.656z">
         </path>
      </symbol>
      <symbol id="icon-components" viewBox="0 0 40 32">
         <path fill="#f3f3f3" style="fill: var(--color1, #f3f3f3)"
            d="M39.324 0h-38.982c-0.189 0-0.342 0.153-0.342 0.342v2.53c0 0.189 0.153 0.342 0.342 0.342h38.982c0.189 0 0.342-0.153 0.342-0.342v-2.53c0-0.189-0.153-0.342-0.342-0.342z">
         </path>
         <path fill="#c4c4c4" style="fill: var(--color2, #c4c4c4)"
            d="M25.441 1.436h-1.71c-0.076 0-0.137 0.061-0.137 0.137v0.137c0 0.076 0.061 0.137 0.137 0.137h1.71c0.076 0 0.137-0.061 0.137-0.137v-0.137c0-0.076-0.061-0.137-0.137-0.137z">
         </path>
         <path fill="#2164e1" style="fill: var(--color3, #2164e1)"
            d="M18.807 1.436h-2.53c-0.076 0-0.137 0.061-0.137 0.137v0.137c0 0.076 0.061 0.137 0.137 0.137h2.53c0.076 0 0.137-0.061 0.137-0.137v-0.137c0-0.076-0.061-0.137-0.137-0.137z">
         </path>
         <path fill="#c4c4c4" style="fill: var(--color2, #c4c4c4)"
            d="M22.705 1.436h-2.872c-0.076 0-0.137 0.061-0.137 0.137v0.137c0 0.076 0.061 0.137 0.137 0.137h2.872c0.076 0 0.137-0.061 0.137-0.137v-0.137c0-0.076-0.061-0.137-0.137-0.137z">
         </path>
         <path fill="#c4c4c4" style="fill: var(--color2, #c4c4c4)"
            d="M5.198 1.026h-3.625c-0.113 0-0.205 0.092-0.205 0.205v0.82c0 0.113 0.092 0.205 0.205 0.205h3.625c0.113 0 0.205-0.092 0.205-0.205v-0.821c0-0.113-0.092-0.205-0.205-0.205z">
         </path>
         <path fill="#c4c4c4" style="fill: var(--color2, #c4c4c4)"
            d="M36.657 1.026h-0.889c-0.076 0-0.137 0.061-0.137 0.137v0.889c0 0.076 0.061 0.137 0.137 0.137h0.889c0.076 0 0.137-0.061 0.137-0.137v-0.889c0-0.076-0.061-0.137-0.137-0.137z">
         </path>
         <path fill="#c4c4c4" style="fill: var(--color2, #c4c4c4)"
            d="M34.742 1.026h-0.889c-0.076 0-0.137 0.061-0.137 0.137v0.889c0 0.076 0.061 0.137 0.137 0.137h0.889c0.076 0 0.137-0.061 0.137-0.137v-0.889c0-0.076-0.061-0.137-0.137-0.137z">
         </path>
         <path fill="#c4c4c4" style="fill: var(--color2, #c4c4c4)"
            d="M38.572 1.026h-0.889c-0.076 0-0.137 0.061-0.137 0.137v0.889c0 0.076 0.061 0.137 0.137 0.137h0.889c0.076 0 0.137-0.061 0.137-0.137v-0.889c0-0.076-0.061-0.137-0.137-0.137z">
         </path>
         <path fill="#f3f3f3" style="fill: var(--color1, #f3f3f3)"
            d="M12.72 4.923h-12.31c-0.189 0-0.342 0.153-0.342 0.342v12.444c0 0.189 0.153 0.342 0.342 0.342h12.31c0.189 0 0.342-0.153 0.342-0.342v-12.444c0-0.189-0.153-0.342-0.342-0.342z">
         </path>
         <path fill="#c4c4c4" style="fill: var(--color2, #c4c4c4)"
            d="M11.489 6.496h-9.916c-0.113 0-0.205 0.092-0.205 0.205v1.573c0 0.113 0.092 0.205 0.205 0.205h9.916c0.113 0 0.205-0.092 0.205-0.205v-1.573c0-0.113-0.092-0.205-0.205-0.205z">
         </path>
         <path fill="#c4c4c4" style="fill: var(--color2, #c4c4c4)"
            d="M11.489 9.162h-9.916c-0.113 0-0.205 0.092-0.205 0.205v1.573c0 0.113 0.092 0.205 0.205 0.205h9.916c0.113 0 0.205-0.092 0.205-0.205v-1.573c0-0.113-0.092-0.205-0.205-0.205z">
         </path>
         <path fill="#c4c4c4" style="fill: var(--color2, #c4c4c4)"
            d="M11.489 11.829h-9.916c-0.113 0-0.205 0.092-0.205 0.205v1.573c0 0.113 0.092 0.205 0.205 0.205h9.916c0.113 0 0.205-0.092 0.205-0.205v-1.573c0-0.113-0.092-0.205-0.205-0.205z">
         </path>
         <path fill="#2164e1" style="fill: var(--color3, #2164e1)"
            d="M11.489 14.496h-9.916c-0.113 0-0.205 0.092-0.205 0.205v1.573c0 0.113 0.092 0.205 0.205 0.205h9.916c0.113 0 0.205-0.092 0.205-0.205v-1.573c0-0.113-0.092-0.205-0.205-0.205z">
         </path>
         <path fill="#fff" style="fill: var(--color4, #fff)"
            d="M6.728 15.806l-0.068-0.068 0.156-0.155h-0.733v-0.098h0.733l-0.156-0.156 0.068-0.067 0.272 0.272-0.272 0.272z">
         </path>
         <path fill="#f3f3f3" style="fill: var(--color1, #f3f3f3)"
            d="M35.563 4.923h-7.933c-0.189 0-0.342 0.153-0.342 0.342v15.658c0 0.189 0.153 0.342 0.342 0.342h7.933c0.189 0 0.342-0.153 0.342-0.342v-15.658c0-0.189-0.153-0.342-0.342-0.342z">
         </path>
         <path fill="#c4c4c4" style="fill: var(--color2, #c4c4c4)"
            d="M30.502 19.214h-0.547c-0.113 0-0.205 0.092-0.205 0.205v0.547c0 0.113 0.092 0.205 0.205 0.205h0.547c0.113 0 0.205-0.092 0.205-0.205v-0.547c0-0.113-0.092-0.205-0.205-0.205z">
         </path>
         <path fill="#c4c4c4" style="fill: var(--color2, #c4c4c4)"
            d="M28.997 19.214h-0.547c-0.113 0-0.205 0.092-0.205 0.205v0.547c0 0.113 0.092 0.205 0.205 0.205h0.547c0.113 0 0.205-0.092 0.205-0.205v-0.547c0-0.113-0.092-0.205-0.205-0.205z">
         </path>
         <path fill="#c4c4c4" style="fill: var(--color2, #c4c4c4)"
            d="M32.006 19.214h-0.547c-0.113 0-0.205 0.092-0.205 0.205v0.547c0 0.113 0.092 0.205 0.205 0.205h0.547c0.113 0 0.205-0.092 0.205-0.205v-0.547c0-0.113-0.092-0.205-0.205-0.205z">
         </path>
         <path fill="#2164e1" style="fill: var(--color3, #2164e1)"
            d="M31.254 5.949h-2.872c-0.076 0-0.137 0.061-0.137 0.137v0.821c0 0.076 0.061 0.137 0.137 0.137h2.872c0.076 0 0.137-0.061 0.137-0.137v-0.821c0-0.076-0.061-0.137-0.137-0.137z">
         </path>
         <path fill="#c4c4c4" style="fill: var(--color2, #c4c4c4)"
            d="M31.664 13.812h-3.283c-0.076 0-0.137 0.061-0.137 0.137v0.068c0 0.075 0.061 0.137 0.137 0.137h3.283c0.076 0 0.137-0.061 0.137-0.137v-0.068c0-0.076-0.061-0.137-0.137-0.137z">
         </path>
         <path fill="#c4c4c4" style="fill: var(--color2, #c4c4c4)"
            d="M30.98 14.701h-2.53c-0.076 0-0.137 0.061-0.137 0.137v0.068c0 0.075 0.061 0.137 0.137 0.137h2.53c0.076 0 0.137-0.061 0.137-0.137v-0.068c0-0.076-0.061-0.137-0.137-0.137z">
         </path>
         <path fill="#c4c4c4" style="fill: var(--color2, #c4c4c4)"
            d="M31.322 15.59h-2.872c-0.076 0-0.137 0.061-0.137 0.137v0.068c0 0.076 0.061 0.137 0.137 0.137h2.872c0.076 0 0.137-0.061 0.137-0.137v-0.068c0-0.076-0.061-0.137-0.137-0.137z">
         </path>
         <path fill="#c4c4c4" style="fill: var(--color2, #c4c4c4)"
            d="M30.16 16.479h-1.778c-0.076 0-0.137 0.061-0.137 0.137v0.068c0 0.076 0.061 0.137 0.137 0.137h1.778c0.076 0 0.137-0.061 0.137-0.137v-0.068c0-0.076-0.061-0.137-0.137-0.137z">
         </path>
         <path fill="#c4c4c4" style="fill: var(--color2, #c4c4c4)"
            d="M31.22 8.889h-2.804c-0.094 0-0.171 0.077-0.171 0.171v0.205c0 0.094 0.077 0.171 0.171 0.171h2.804c0.094 0 0.171-0.077 0.171-0.171v-0.205c0-0.094-0.077-0.171-0.171-0.171z">
         </path>
         <path fill="#c4c4c4" style="fill: var(--color2, #c4c4c4)"
            d="M32.793 9.983h-4.377c-0.094 0-0.171 0.077-0.171 0.171v0.205c0 0.094 0.077 0.171 0.171 0.171h4.377c0.094 0 0.171-0.077 0.171-0.171v-0.205c0-0.094-0.077-0.171-0.171-0.171z">
         </path>
         <path fill="#c4c4c4" style="fill: var(--color2, #c4c4c4)"
            d="M32.109 11.077h-3.693c-0.094 0-0.171 0.077-0.171 0.171v0.205c0 0.094 0.077 0.171 0.171 0.171h3.693c0.094 0 0.171-0.077 0.171-0.171v-0.205c0-0.094-0.077-0.171-0.171-0.171z">
         </path>
         <path fill="#c4c4c4" style="fill: var(--color2, #c4c4c4)"
            d="M31.22 12.171h-2.804c-0.094 0-0.171 0.077-0.171 0.171v0.205c0 0.094 0.077 0.171 0.171 0.171h2.804c0.094 0 0.171-0.077 0.171-0.171v-0.205c0-0.094-0.077-0.171-0.171-0.171z">
         </path>
         <path fill="#c4c4c4" style="fill: var(--color2, #c4c4c4)"
            d="M38.64 30.427c0-0.415-0.337-0.752-0.752-0.752s-0.752 0.337-0.752 0.752c0 0.415 0.337 0.752 0.752 0.752s0.752-0.337 0.752-0.752z">
         </path>
         <path fill="#f3f3f3" style="fill: var(--color1, #f3f3f3)"
            d="M0 20.103c0-0.189 0.153-0.342 0.342-0.342h13.473c0.189 0 0.342 0.153 0.342 0.342v4.992h-14.157v-4.992z">
         </path>
         <path fill="#c4c4c4" style="fill: var(--color2, #c4c4c4)"
            d="M12.002 20.991h-7.591c-0.094 0-0.171 0.077-0.171 0.171v0.205c0 0.094 0.077 0.171 0.171 0.171h7.591c0.094 0 0.171-0.077 0.171-0.171v-0.205c0-0.094-0.077-0.171-0.171-0.171z">
         </path>
         <path fill="#c4c4c4" style="fill: var(--color2, #c4c4c4)"
            d="M12.755 22.085h-8.344c-0.094 0-0.171 0.077-0.171 0.171v0.205c0 0.094 0.077 0.171 0.171 0.171h8.344c0.094 0 0.171-0.077 0.171-0.171v-0.205c0-0.094-0.077-0.171-0.171-0.171z">
         </path>
         <path fill="#c4c4c4" style="fill: var(--color2, #c4c4c4)"
            d="M8.241 23.179h-3.83c-0.094 0-0.171 0.077-0.171 0.171v0.205c0 0.094 0.077 0.171 0.171 0.171h3.83c0.094 0 0.171-0.077 0.171-0.171v-0.205c0-0.094-0.077-0.171-0.171-0.171z">
         </path>
         <path fill="#c4c4c4" style="fill: var(--color2, #c4c4c4)"
            d="M0 25.162h7.044v1.846h-6.771c-0.151 0-0.274-0.122-0.274-0.273v-1.573z"></path>
         <path fill="#2164e1" style="fill: var(--color3, #2164e1)"
            d="M7.112 25.162h7.044v1.573c0 0.151-0.123 0.273-0.274 0.273h-6.771v-1.846z"></path>
         <path fill="#c4c4c4" style="fill: var(--color2, #c4c4c4)"
            d="M2.223 23.043c0.585 0 1.060-0.474 1.060-1.060s-0.475-1.060-1.060-1.060-1.060 0.474-1.060 1.060c0 0.585 0.475 1.060 1.060 1.060z">
         </path>
         <path fill="#f3f3f3" style="fill: var(--color1, #f3f3f3)"
            d="M25.236 4.923h-10.122c-0.189 0-0.342 0.153-0.342 0.342v5.812c0 0.189 0.153 0.342 0.342 0.342h10.122c0.189 0 0.342-0.153 0.342-0.342v-5.812c0-0.189-0.153-0.342-0.342-0.342z">
         </path>
         <path fill="#c4c4c4" style="fill: var(--color2, #c4c4c4)"
            d="M18.534 12.718c0.151 0 0.274-0.122 0.274-0.274s-0.122-0.273-0.274-0.273-0.273 0.122-0.273 0.273c0 0.151 0.122 0.274 0.273 0.274z">
         </path>
         <path fill="#c4c4c4" style="fill: var(--color2, #c4c4c4)"
            d="M19.354 12.718c0.151 0 0.274-0.122 0.274-0.274s-0.122-0.273-0.274-0.273-0.274 0.122-0.274 0.273c0 0.151 0.122 0.274 0.274 0.274z">
         </path>
         <path fill="#2164e1" style="fill: var(--color3, #2164e1)"
            d="M20.175 12.718c0.151 0 0.274-0.122 0.274-0.274s-0.122-0.273-0.274-0.273-0.274 0.122-0.274 0.273c0 0.151 0.122 0.274 0.274 0.274z">
         </path>
         <path fill="#c4c4c4" style="fill: var(--color2, #c4c4c4)"
            d="M20.996 12.718c0.151 0 0.274-0.122 0.274-0.274s-0.122-0.273-0.274-0.273-0.274 0.122-0.274 0.273c0 0.151 0.122 0.274 0.274 0.274z">
         </path>
         <path fill="#c4c4c4" style="fill: var(--color2, #c4c4c4)"
            d="M21.816 12.718c0.151 0 0.274-0.122 0.274-0.274s-0.122-0.273-0.274-0.273-0.274 0.122-0.274 0.273c0 0.151 0.122 0.274 0.274 0.274z">
         </path>
         <path fill="#f3f3f3" style="fill: var(--color1, #f3f3f3)"
            d="M39.324 28.786h-38.982c-0.189 0-0.342 0.153-0.342 0.342v2.53c0 0.189 0.153 0.342 0.342 0.342h38.982c0.189 0 0.342-0.153 0.342-0.342v-2.53c0-0.189-0.153-0.342-0.342-0.342z">
         </path>
         <path fill="#c4c4c4" style="fill: var(--color2, #c4c4c4)"
            d="M6.771 30.154h-5.676c-0.076 0-0.137 0.061-0.137 0.137v0.273c0 0.076 0.061 0.137 0.137 0.137h5.676c0.076 0 0.137-0.061 0.137-0.137v-0.273c0-0.075-0.061-0.137-0.137-0.137z">
         </path>
         <path fill="#c4c4c4" style="fill: var(--color2, #c4c4c4)"
            d="M38.64 30.427c0-0.415-0.337-0.752-0.752-0.752s-0.752 0.337-0.752 0.752 0.337 0.752 0.752 0.752c0.416 0 0.752-0.337 0.752-0.752z">
         </path>
         <path fill="#2164e1" style="fill: var(--color3, #2164e1)"
            d="M19.234 30.109c0.025-0.028 0.068-0.031 0.097-0.006l0.502 0.439 0.502-0.439c0.028-0.025 0.072-0.022 0.097 0.006s0.022 0.072-0.006 0.096l-0.547 0.479c-0.026 0.023-0.064 0.023-0.090 0l-0.547-0.479c-0.028-0.025-0.031-0.068-0.007-0.096z">
         </path>
         <path fill="#2164e1" style="fill: var(--color3, #2164e1)"
            d="M38.572 15.179c-0.189 0-0.342-0.153-0.342-0.342s0.153-0.342 0.342-0.342c0.189 0 0.342 0.153 0.342 0.342s-0.153 0.342-0.342 0.342z">
         </path>
         <path fill="#c4c4c4" style="fill: var(--color2, #c4c4c4)"
            d="M38.572 10.051c-0.189 0-0.342-0.153-0.342-0.342s0.153-0.342 0.342-0.342c0.189 0 0.342 0.153 0.342 0.342s-0.153 0.342-0.342 0.342z">
         </path>
         <path fill="#c4c4c4" style="fill: var(--color2, #c4c4c4)"
            d="M38.572 11.761c-0.189 0-0.342-0.153-0.342-0.342s0.153-0.342 0.342-0.342c0.189 0 0.342 0.153 0.342 0.342s-0.153 0.342-0.342 0.342z">
         </path>
         <path fill="#c4c4c4" style="fill: var(--color2, #c4c4c4)"
            d="M38.572 13.47c-0.189 0-0.342-0.153-0.342-0.342s0.153-0.342 0.342-0.342c0.189 0 0.342 0.153 0.342 0.342s-0.153 0.342-0.342 0.342z">
         </path>
         <path fill="#c4c4c4" style="fill: var(--color2, #c4c4c4)"
            d="M38.572 16.889c-0.189 0-0.342-0.153-0.342-0.342s0.153-0.342 0.342-0.342c0.189 0 0.342 0.153 0.342 0.342s-0.153 0.342-0.342 0.342z">
         </path>
         <path fill="#c4c4c4" style="fill: var(--color2, #c4c4c4)"
            d="M38.572 18.598c-0.189 0-0.342-0.153-0.342-0.342s0.153-0.342 0.342-0.342c0.189 0 0.342 0.153 0.342 0.342s-0.153 0.342-0.342 0.342z">
         </path>
         <path fill="#c4c4c4" style="fill: var(--color2, #c4c4c4)"
            d="M38.572 20.308c-0.189 0-0.342-0.153-0.342-0.342s0.153-0.342 0.342-0.342c0.189 0 0.342 0.153 0.342 0.342s-0.153 0.342-0.342 0.342z">
         </path>
         <path fill="#f3f3f3" style="fill: var(--color1, #f3f3f3)"
            d="M24.005 14.427h-7.728c-0.227 0-0.41 0.184-0.41 0.41v8.957c0 0.227 0.184 0.41 0.41 0.41h7.728c0.227 0 0.41-0.184 0.41-0.41v-8.957c0-0.227-0.184-0.41-0.41-0.41z">
         </path>
         <path fill="#f3f3f3" style="fill: var(--color1, #f3f3f3)"
            d="M23.001 23.59l-0.569 0.569 0.569 0.569 0.569-0.569-0.569-0.569z"></path>
         <path fill="#c4c4c4" style="fill: var(--color2, #c4c4c4)"
            d="M22.124 16.137h-4.514c-0.094 0-0.171 0.077-0.171 0.171v0.205c0 0.094 0.077 0.171 0.171 0.171h4.514c0.094 0 0.171-0.077 0.171-0.171v-0.205c0-0.094-0.077-0.171-0.171-0.171z">
         </path>
         <path fill="#2164e1" style="fill: var(--color3, #2164e1)"
            d="M21.303 17.573h-3.693c-0.094 0-0.171 0.077-0.171 0.171v0.205c0 0.094 0.077 0.171 0.171 0.171h3.693c0.094 0 0.171-0.077 0.171-0.171v-0.205c0-0.094-0.077-0.171-0.171-0.171z">
         </path>
         <path fill="#c4c4c4" style="fill: var(--color2, #c4c4c4)"
            d="M21.85 19.009h-4.24c-0.094 0-0.171 0.077-0.171 0.171v0.205c0 0.094 0.077 0.171 0.171 0.171h4.24c0.094 0 0.171-0.077 0.171-0.171v-0.205c0-0.094-0.077-0.171-0.171-0.171z">
         </path>
         <path fill="#c4c4c4" style="fill: var(--color2, #c4c4c4)"
            d="M20.483 20.444h-2.872c-0.094 0-0.171 0.077-0.171 0.171v0.205c0 0.094 0.077 0.171 0.171 0.171h2.872c0.094 0 0.171-0.077 0.171-0.171v-0.205c0-0.094-0.077-0.171-0.171-0.171z">
         </path>
         <path fill="#c4c4c4" style="fill: var(--color2, #c4c4c4)"
            d="M20.483 21.88h-2.872c-0.094 0-0.171 0.077-0.171 0.171v0.205c0 0.094 0.077 0.171 0.171 0.171h2.872c0.094 0 0.171-0.077 0.171-0.171v-0.205c0-0.094-0.077-0.171-0.171-0.171z">
         </path>
         <path fill="#f3f3f3" style="fill: var(--color1, #f3f3f3)"
            d="M22.979 27.214c0.567 0 1.026-0.459 1.026-1.026s-0.459-1.026-1.026-1.026c-0.567 0-1.026 0.459-1.026 1.026s0.459 1.026 1.026 1.026z">
         </path>
         <path fill="#2164e1" style="fill: var(--color3, #2164e1)"
            d="M22.569 26.325c0.076 0 0.137-0.061 0.137-0.137s-0.061-0.137-0.137-0.137c-0.076 0-0.137 0.061-0.137 0.137s0.061 0.137 0.137 0.137z">
         </path>
         <path fill="#2164e1" style="fill: var(--color3, #2164e1)"
            d="M22.979 26.325c0.076 0 0.137-0.061 0.137-0.137s-0.061-0.137-0.137-0.137c-0.076 0-0.137 0.061-0.137 0.137s0.061 0.137 0.137 0.137z">
         </path>
         <path fill="#2164e1" style="fill: var(--color3, #2164e1)"
            d="M23.389 26.325c0.076 0 0.137-0.061 0.137-0.137s-0.061-0.137-0.137-0.137c-0.076 0-0.137 0.061-0.137 0.137s0.061 0.137 0.137 0.137z">
         </path>
         <path fill="#2164e1" style="fill: var(--color3, #2164e1)"
            d="M39.256 22.974h-12.72c-0.227 0-0.41 0.184-0.41 0.41v3.282c0 0.227 0.184 0.41 0.41 0.41h12.72c0.227 0 0.41-0.184 0.41-0.41v-3.282c0-0.227-0.184-0.41-0.41-0.41z">
         </path>
         <path fill="#fff" style="fill: var(--color4, #fff)"
            d="M33.373 25.734l-0.152-0.152 0.351-0.349h-1.649v-0.222h1.649l-0.351-0.351 0.152-0.151 0.612 0.612-0.612 0.612z">
         </path>
         <path fill="#f3f3f3" style="fill: var(--color1, #f3f3f3)"
            d="M38.469 7.726c0.661 0 1.197-0.536 1.197-1.197s-0.536-1.197-1.197-1.197c-0.661 0-1.197 0.536-1.197 1.197s0.536 1.197 1.197 1.197z">
         </path>
         <path fill="#2164e1" style="fill: var(--color3, #2164e1)"
            d="M38.337 6.124c-0.045-0.031-0.107 0.002-0.107 0.056v0.767c0 0.055 0.062 0.087 0.107 0.056l0.563-0.383c0.040-0.027 0.040-0.086 0-0.113l-0.563-0.383z">
         </path>
      </symbol>
      <svg width="0" height="0" class="hidden">
         <symbol fill="none" xmlns="http://www.w3.org/2000/svg" viewBox="0 0 42 21" id="new">
            <path
               d="M6.79941 14.224C6.78552 13.2551 5.98764 6.0964 6.58919 6.73244C8.56141 8.81774 9.63806 10.9247 13.0662 14.4341C12.7429 14.6012 12.4657 6.23628 13.0656 6.42932"
               stroke="#12E700" stroke-width="1.75" stroke-linecap="round" stroke-linejoin="round"
               stroke-dasharray="26 28"></path>
            <path
               d="M15.8189 11.1339C17.2047 10.6975 21.1987 10.1192 21.1987 10.1192C21.1987 6.26675 18.5397 5.48031 16.3631 7.51566C13.3703 10.6815 16.5736 17.0829 21.1987 12.7863"
               stroke="#12E700" stroke-width="1.75" stroke-linecap="round" stroke-linejoin="round"
               stroke-dasharray="26 28"></path>
            <path
               d="M31.5001 6.5C31.5001 6.5 31.0001 12.7268 30.0001 14.2268C29.0001 12.2268 27.5001 8 27.5001 8C27.5001 8 26.2762 12.2428 25.3014 14.2268C23.8014 12.2268 23.507 8.24536 23.2633 6.42578"
               stroke="#12E700" stroke-width="1.75" stroke-linecap="round" stroke-linejoin="round"
               stroke-dasharray="30 32"></path>
            <path d="M35.5001 6C35.0001 7.5 35.0001 9.1636 35.0001 11" stroke="#12E700" stroke-width="1.75"
               stroke-linecap="round" stroke-linejoin="round" stroke-dasharray="6 8"></path>
            <path
               d="M34.8184 13.7268C34.3931 13.7268 34.2108 14.0499 34.393 14.4982C34.4628 14.6699 34.6373 14.8033 34.8185 14.7001C35.1055 14.5366 35.1106 14.1968 35.1441 13.9108"
               stroke="#12E700" stroke-width="1.75" stroke-linecap="round" stroke-linejoin="round"
               stroke-dasharray="3 5"></path>
            <path
               d="M4.77944 1.20503C8.52277 0.328687 29.0036 0.764706 37.51 0.897816C39.1667 0.923739 40.5039 2.27358 40.5163 3.93039C40.545 7.75955 40.59 13.1647 40.4558 16.6583C40.3993 18.1302 39.1972 19.2413 37.7249 19.2868C26.4478 19.6352 13.8652 19.9843 3.8984 19.577C2.28078 19.5109 1.03497 18.1469 1.02123 16.528C0.983614 12.0933 0.709236 7.58545 1.27944 4.7075"
               stroke="#12E700" stroke-linecap="round" stroke-linejoin="round" stroke-dasharray="105 107"></path>
         </symbol>
      </svg>
      <symbol id="icon-check" viewBox="0 0 47 32">
         <path fill="none" stroke="#30b467" style="stroke: var(--color1, #30b467)" stroke-linejoin="miter"
            stroke-linecap="butt" stroke-miterlimit="4" stroke-width="7.3846" d="M2.837 7.482l12.308 14.769"></path>
         <path fill="none" stroke="#30b467" style="stroke: var(--color1, #30b467)" stroke-linejoin="miter"
            stroke-linecap="butt" stroke-miterlimit="4" stroke-width="7.3846" d="M41.868 2.732l-27.077 24.615"></path>
      </symbol>
      <symbol id="icon-not-check" viewBox="0 0 47 32">
         <path fill="none" stroke="#b9b9b9" style="stroke: var(--color1, #b9b9b9)" stroke-linejoin="miter"
            stroke-linecap="butt" stroke-miterlimit="4" stroke-width="7.3846" d="M2.837 7.482l12.308 14.769"></path>
         <path fill="none" stroke="#b9b9b9" style="stroke: var(--color1, #b9b9b9)" stroke-linejoin="miter"
            stroke-linecap="butt" stroke-miterlimit="4" stroke-width="7.3846" d="M41.868 2.732l-27.077 24.615"></path>
      </symbol>
      <symbol id="icon-footer" viewBox="0 0 32 32">
         <path
            d="M10.667 17.195c1.52 0 2.752-1.232 2.752-2.752s-1.232-2.752-2.752-2.752-2.752 1.232-2.752 2.752c0 1.52 1.232 2.752 2.752 2.752z">
         </path>
         <path
            d="M16 0c-8.832 0-16 7.168-16 16s7.168 16 16 16c8.832 0 16-7.168 16-16s-7.168-16-16-16zM5.013 14.464c0-3.115 2.539-5.653 5.653-5.653s5.653 2.539 5.653 5.653c0 3.115-2.539 5.653-5.653 5.653s-5.653-2.539-5.653-5.653zM16.725 25.877c-1.771 0-3.477-0.491-4.971-1.429l1.472-2.368c1.045 0.661 2.261 1.003 3.499 1.003s2.453-0.341 3.477-1.003l1.472 2.368c-1.472 0.939-3.2 1.429-4.949 1.429zM19.051 15.851v-2.795h8.576v2.795h-8.576z">
         </path>
      </symbol>
   </defs>
</svg>